<svg width="128" height="128" viewBox="0 0 128 128" fill="none" xmlns="http://www.w3.org/2000/svg">
<path d="M115.893 96L73.2268 21.3334C72.2965 19.6918 70.9473 18.3264 69.317 17.3764C67.6868 16.4264 65.8336 15.9259 63.9468 15.9259C62.0599 15.9259 60.2068 16.4264 58.5765 17.3764C56.9462 18.3264 55.5971 19.6918 54.6668 21.3334L12.0001 96C11.0598 97.6286 10.5667 99.4768 10.5708 101.357C10.575 103.238 11.0763 105.084 12.0238 106.708C12.9714 108.333 14.3316 109.678 15.9665 110.607C17.6014 111.536 19.453 112.017 21.3334 112H106.667C108.538 111.998 110.376 111.504 111.996 110.567C113.616 109.63 114.961 108.283 115.896 106.662C116.831 105.041 117.323 103.202 117.323 101.331C117.322 99.4592 116.829 97.6208 115.893 96Z" stroke="#2563EB" stroke-width="10.6667" stroke-linecap="round" stroke-linejoin="round"/>
<path d="M64 48V69.3333" stroke="#2563EB" stroke-width="10.6667" stroke-linecap="round" stroke-linejoin="round"/>
<path d="M64 90.6667H64.0533" stroke="#2563EB" stroke-width="10.6667" stroke-linecap="round" stroke-linejoin="round"/>
</svg>
