<svg width="48" height="48" viewBox="0 0 48 48" fill="none" xmlns="http://www.w3.org/2000/svg">
<path d="M14 32.6C18.4 32.6 22 28.94 22 24.5C22 22.18 20.86 19.98 18.58 18.12C16.3 16.26 14.58 13.5 14 10.6C13.42 13.5 11.72 16.28 9.42 18.12C7.12 19.96 6 22.2 6 24.5C6 28.94 9.6 32.6 14 32.6Z" stroke="#2563EB" stroke-width="4" stroke-linecap="round" stroke-linejoin="round"/>
<path d="M25.1201 13.2C26.4956 11.0023 27.4707 8.57813 28.0001 6.04004C29.0001 11.04 32.0001 15.84 36.0001 19.04C40.0001 22.24 42.0001 26.04 42.0001 30.04C42.0115 32.8046 41.2018 35.5104 39.6736 37.8142C38.1455 40.1181 35.9677 41.9163 33.4163 42.981C30.8649 44.0457 28.0549 44.3289 25.3424 43.7946C22.6299 43.2603 20.1371 41.9327 18.1801 39.98" stroke="#2563EB" stroke-width="4" stroke-linecap="round" stroke-linejoin="round"/>
</svg>
