<svg width="20" height="20" viewBox="0 0 20 20" fill="none" xmlns="http://www.w3.org/2000/svg">
<g clip-path="url(#clip0_6_821)">
<path d="M12.9165 6.25004L14.8332 8.16671C14.9889 8.3194 15.1984 8.40492 15.4165 8.40492C15.6346 8.40492 15.8441 8.3194 15.9998 8.16671L17.7498 6.41671C17.9025 6.26093 17.9881 6.0515 17.9881 5.83337C17.9881 5.61525 17.9025 5.40582 17.7498 5.25004L15.8332 3.33337" stroke="#64748B" stroke-width="1.66667" stroke-linecap="round" stroke-linejoin="round"/>
<path d="M17.5 1.66663L9.5 9.66663" stroke="#64748B" stroke-width="1.66667" stroke-linecap="round" stroke-linejoin="round"/>
<path d="M6.24984 17.5C8.78114 17.5 10.8332 15.448 10.8332 12.9167C10.8332 10.3854 8.78114 8.33337 6.24984 8.33337C3.71853 8.33337 1.6665 10.3854 1.6665 12.9167C1.6665 15.448 3.71853 17.5 6.24984 17.5Z" stroke="#64748B" stroke-width="1.66667" stroke-linecap="round" stroke-linejoin="round"/>
</g>
<defs>
<clipPath id="clip0_6_821">
<rect width="20" height="20" fill="white"/>
</clipPath>
</defs>
</svg>
