<svg width="16" height="16" viewBox="0 0 16 16" fill="none" xmlns="http://www.w3.org/2000/svg">
<g clip-path="url(#clip0_6_6036)">
<path d="M9.69064 14.4577C9.71597 14.5208 9.76 14.5747 9.81682 14.6121C9.87364 14.6494 9.94054 14.6685 10.0085 14.6668C10.0765 14.665 10.1424 14.6426 10.1972 14.6023C10.252 14.5621 10.2932 14.506 10.3153 14.4417L14.6486 1.77503C14.67 1.71596 14.674 1.65203 14.6604 1.59073C14.6467 1.52943 14.6159 1.47329 14.5715 1.42888C14.527 1.38447 14.4709 1.35363 14.4096 1.33996C14.3483 1.32629 14.2844 1.33036 14.2253 1.3517L1.55864 5.68503C1.4943 5.70709 1.43826 5.74831 1.39802 5.80314C1.35778 5.85798 1.33529 5.92381 1.33354 5.9918C1.3318 6.05979 1.3509 6.12669 1.38828 6.18351C1.42565 6.24034 1.47952 6.28437 1.54264 6.3097L6.82931 8.4297C6.99643 8.49661 7.14827 8.59667 7.27568 8.72385C7.40309 8.85103 7.50343 9.00269 7.57064 9.1697L9.69064 14.4577Z" stroke="white" stroke-width="1.33333" stroke-linecap="round" stroke-linejoin="round"/>
<path d="M14.5693 1.43164L7.276 8.72431" stroke="white" stroke-width="1.33333" stroke-linecap="round" stroke-linejoin="round"/>
</g>
<defs>
<clipPath id="clip0_6_6036">
<rect width="16" height="16" fill="white"/>
</clipPath>
</defs>
</svg>
