<svg width="128" height="128" viewBox="0 0 128 128" fill="none" xmlns="http://www.w3.org/2000/svg">
<path d="M85.3333 112V101.333C85.3333 95.6754 83.0857 90.2492 79.0849 86.2484C75.0841 82.2476 69.6579 80 64 80H32C26.342 80 20.9158 82.2476 16.915 86.2484C12.9142 90.2492 10.6666 95.6754 10.6666 101.333V112" stroke="#2563EB" stroke-width="10.6667" stroke-linecap="round" stroke-linejoin="round"/>
<path d="M48 58.6667C59.782 58.6667 69.3333 49.1154 69.3333 37.3333C69.3333 25.5513 59.782 16 48 16C36.2179 16 26.6666 25.5513 26.6666 37.3333C26.6666 49.1154 36.2179 58.6667 48 58.6667Z" stroke="#2563EB" stroke-width="10.6667" stroke-linecap="round" stroke-linejoin="round"/>
<path d="M117.333 112V101.333C117.33 96.6066 115.757 92.0148 112.861 88.279C109.965 84.5433 105.91 81.8751 101.333 80.6934" stroke="#2563EB" stroke-width="10.6667" stroke-linecap="round" stroke-linejoin="round"/>
<path d="M85.3334 16.6933C89.9223 17.8683 93.9896 20.5371 96.8941 24.279C99.7987 28.0209 101.375 32.6231 101.375 37.36C101.375 42.0969 99.7987 46.6991 96.8941 50.441C93.9896 54.1829 89.9223 56.8517 85.3334 58.0267" stroke="#2563EB" stroke-width="10.6667" stroke-linecap="round" stroke-linejoin="round"/>
</svg>
