<svg width="48" height="48" viewBox="0 0 48 48" fill="none" xmlns="http://www.w3.org/2000/svg">
<path d="M7.99998 28C7.62151 28.0013 7.25045 27.8951 6.92989 27.6939C6.60934 27.4927 6.35245 27.2047 6.18908 26.8633C6.02572 26.5219 5.96257 26.1411 6.00698 25.7653C6.0514 25.3894 6.20154 25.0339 6.43998 24.74L26.24 4.33996C26.3885 4.16852 26.5909 4.05267 26.814 4.01143C27.037 3.97018 27.2674 4.00598 27.4674 4.11297C27.6675 4.21995 27.8252 4.39175 27.9147 4.60018C28.0042 4.8086 28.0201 5.04126 27.96 5.25996L24.12 17.3C24.0068 17.603 23.9687 17.929 24.0092 18.25C24.0496 18.5709 24.1673 18.8773 24.3522 19.1428C24.537 19.4083 24.7835 19.625 25.0705 19.7743C25.3575 19.9236 25.6765 20.001 26 20H40C40.3785 19.9987 40.7495 20.1048 41.0701 20.306C41.3906 20.5072 41.6475 20.7953 41.8109 21.1366C41.9743 21.478 42.0374 21.8588 41.993 22.2346C41.9486 22.6105 41.7984 22.966 41.56 23.26L21.76 43.66C21.6115 43.8314 21.4091 43.9472 21.186 43.9885C20.963 44.0297 20.7325 43.9939 20.5325 43.887C20.3325 43.78 20.1748 43.6082 20.0853 43.3997C19.9958 43.1913 19.9798 42.9587 20.04 42.74L23.88 30.7C23.9932 30.3969 24.0312 30.0709 23.9908 29.7499C23.9504 29.429 23.8327 29.1226 23.6478 28.8571C23.4629 28.5916 23.2164 28.3749 22.9294 28.2256C22.6424 28.0764 22.3235 27.9989 22 28H7.99998Z" stroke="#2563EB" stroke-width="4" stroke-linecap="round" stroke-linejoin="round"/>
</svg>
